<svg width="1080" height="1080" viewBox="0 0 1080 1080" fill="none" xmlns="http://www.w3.org/2000/svg">
<path d="M500.168 739.167H619.668V818.833C619.668 829.398 623.865 839.53 631.335 847C638.805 854.47 648.937 858.667 659.501 858.667H739.168C749.732 858.667 759.864 854.47 767.334 847C774.805 839.53 779.001 829.398 779.001 818.833V699.333C797.557 693.156 814.417 682.74 828.246 668.911C842.074 655.082 852.49 638.222 858.668 619.667H898.501C909.066 619.667 919.198 615.47 926.668 608C934.138 600.53 938.335 590.398 938.335 579.833V500.167C938.335 489.602 934.138 479.47 926.668 472C919.198 464.53 909.066 460.333 898.501 460.333H858.668C858.668 429.414 851.469 398.919 837.641 371.263C823.814 343.608 803.737 319.552 779.001 301V181.5C754.266 181.5 729.87 187.259 707.745 198.321C685.621 209.383 666.376 225.445 651.535 245.233L639.585 261.167H500.168C436.781 261.167 375.991 286.347 331.169 331.168C286.348 375.989 261.168 436.78 261.168 500.167V540C261.168 570.92 268.367 601.415 282.195 629.07C296.022 656.725 316.099 680.782 340.835 699.333V818.833C340.835 829.398 345.031 839.53 352.502 847C359.972 854.47 370.104 858.667 380.668 858.667H460.335C470.899 858.667 481.031 854.47 488.501 847C495.971 839.53 500.168 829.398 500.168 818.833V739.167Z" stroke="#00A63E" stroke-width="79.6667" stroke-linecap="round" stroke-linejoin="round"/>
<path d="M699.333 460.333H699.732" stroke="#00A63E" stroke-width="79.6667" stroke-linecap="round" stroke-linejoin="round"/>
<path d="M141.668 380.668V420.501C141.668 441.63 150.061 461.894 165.002 476.834C179.942 491.775 200.206 500.168 221.335 500.168H261.168" stroke="#00A63E" stroke-width="79.6667" stroke-linecap="round" stroke-linejoin="round"/>
</svg>
